{
	"patcher" : 	{
		"fileversion" : 1,
		"appversion" : 		{
			"major" : 7,
			"minor" : 2,
			"revision" : 3,
			"architecture" : "x64",
			"modernui" : 1
		}
,
		"rect" : [ 59.0, 81.0, 640.0, 480.0 ],
		"bgcolor" : [ 0.0, 0.0, 0.0, 1.0 ],
		"editing_bgcolor" : [ 0.046123, 0.046121, 0.046122, 1.0 ],
		"bglocked" : 0,
		"openinpresentation" : 0,
		"default_fontsize" : 14.0,
		"default_fontface" : 0,
		"default_fontname" : "Lato Regular",
		"gridonopen" : 2,
		"gridsize" : [ 20.0, 20.0 ],
		"gridsnaponopen" : 1,
		"objectsnaponopen" : 1,
		"statusbarvisible" : 2,
		"toolbarvisible" : 1,
		"lefttoolbarpinned" : 0,
		"toptoolbarpinned" : 0,
		"righttoolbarpinned" : 0,
		"bottomtoolbarpinned" : 0,
		"toolbars_unpinned_last_save" : 0,
		"tallnewobj" : 0,
		"boxanimatetime" : 200,
		"enablehscroll" : 1,
		"enablevscroll" : 1,
		"devicewidth" : 0.0,
		"description" : "",
		"digest" : "",
		"tags" : "",
		"style" : "zielony",
		"subpatcher_template" : "Green on Black",
		"boxes" : [ 			{
				"box" : 				{
					"id" : "obj-1",
					"maxclass" : "newobj",
					"numinlets" : 1,
					"numoutlets" : 2,
					"outlettype" : [ "", "" ],
					"patching_rect" : [ 280.0, 45.0, 82.0, 25.0 ],
					"style" : "",
					"text" : "patcherargs"
				}

			}
, 			{
				"box" : 				{
					"id" : "obj-54",
					"maxclass" : "newobj",
					"numinlets" : 1,
					"numoutlets" : 1,
					"outlettype" : [ "" ],
					"patching_rect" : [ 50.0, 174.0, 105.0, 25.0 ],
					"style" : "",
					"text" : "expr $i1/12*12"
				}

			}
, 			{
				"box" : 				{
					"id" : "obj-42",
					"maxclass" : "newobj",
					"numinlets" : 2,
					"numoutlets" : 1,
					"outlettype" : [ "float" ],
					"patching_rect" : [ 50.0, 213.0, 134.0, 25.0 ],
					"style" : "",
					"text" : "+ 0."
				}

			}
, 			{
				"box" : 				{
					"id" : "obj-40",
					"maxclass" : "newobj",
					"numinlets" : 1,
					"numoutlets" : 2,
					"outlettype" : [ "float", "float" ],
					"patching_rect" : [ 50.0, 100.0, 134.0, 25.0 ],
					"style" : "",
					"text" : "t f f"
				}

			}
, 			{
				"box" : 				{
					"id" : "obj-39",
					"maxclass" : "newobj",
					"numinlets" : 2,
					"numoutlets" : 1,
					"outlettype" : [ "int" ],
					"patching_rect" : [ 165.0, 139.0, 45.0, 25.0 ],
					"style" : "",
					"text" : "% 12."
				}

			}
, 			{
				"box" : 				{
					"id" : "obj-16",
					"maxclass" : "newobj",
					"numinlets" : 2,
					"numoutlets" : 1,
					"outlettype" : [ "" ],
					"patching_rect" : [ 165.0, 174.0, 86.0, 25.0 ],
					"style" : "",
					"text" : "ak.zl.nearest"
				}

			}
, 			{
				"box" : 				{
					"comment" : "",
					"id" : "obj-55",
					"maxclass" : "inlet",
					"numinlets" : 0,
					"numoutlets" : 1,
					"outlettype" : [ "" ],
					"patching_rect" : [ 50.0, 40.0, 30.0, 30.0 ],
					"style" : ""
				}

			}
, 			{
				"box" : 				{
					"comment" : "",
					"id" : "obj-56",
					"maxclass" : "inlet",
					"numinlets" : 0,
					"numoutlets" : 1,
					"outlettype" : [ "" ],
					"patching_rect" : [ 232.0, 40.0, 30.0, 30.0 ],
					"style" : ""
				}

			}
, 			{
				"box" : 				{
					"comment" : "",
					"id" : "obj-57",
					"maxclass" : "outlet",
					"numinlets" : 1,
					"numoutlets" : 0,
					"patching_rect" : [ 50.0, 298.0, 30.0, 30.0 ],
					"style" : ""
				}

			}
 ],
		"lines" : [ 			{
				"patchline" : 				{
					"destination" : [ "obj-16", 1 ],
					"disabled" : 0,
					"hidden" : 0,
					"source" : [ "obj-1", 0 ]
				}

			}
, 			{
				"patchline" : 				{
					"destination" : [ "obj-42", 1 ],
					"disabled" : 0,
					"hidden" : 0,
					"source" : [ "obj-16", 0 ]
				}

			}
, 			{
				"patchline" : 				{
					"destination" : [ "obj-16", 0 ],
					"disabled" : 0,
					"hidden" : 0,
					"source" : [ "obj-39", 0 ]
				}

			}
, 			{
				"patchline" : 				{
					"destination" : [ "obj-39", 0 ],
					"disabled" : 0,
					"hidden" : 0,
					"source" : [ "obj-40", 1 ]
				}

			}
, 			{
				"patchline" : 				{
					"destination" : [ "obj-54", 0 ],
					"disabled" : 0,
					"hidden" : 0,
					"source" : [ "obj-40", 0 ]
				}

			}
, 			{
				"patchline" : 				{
					"destination" : [ "obj-57", 0 ],
					"disabled" : 0,
					"hidden" : 0,
					"source" : [ "obj-42", 0 ]
				}

			}
, 			{
				"patchline" : 				{
					"destination" : [ "obj-42", 0 ],
					"disabled" : 0,
					"hidden" : 0,
					"source" : [ "obj-54", 0 ]
				}

			}
, 			{
				"patchline" : 				{
					"destination" : [ "obj-40", 0 ],
					"disabled" : 0,
					"hidden" : 0,
					"source" : [ "obj-55", 0 ]
				}

			}
, 			{
				"patchline" : 				{
					"destination" : [ "obj-16", 1 ],
					"disabled" : 0,
					"hidden" : 0,
					"source" : [ "obj-56", 0 ]
				}

			}
 ],
		"dependency_cache" : [ 			{
				"name" : "ak.zl.nearest.maxpat",
				"bootpath" : "~/Documents/Max 7/Packages/ak/patchers",
				"type" : "JSON",
				"implicit" : 1
			}
 ],
		"autosave" : 0,
		"styles" : [ 			{
				"name" : "ak.bigger",
				"default" : 				{
					"selectioncolor" : [ 0.532195, 0.84546, 0.169658, 1.0 ],
					"fontsize" : [ 14.0 ],
					"color" : [ 0.860949, 0.86278, 0.710083, 1.0 ],
					"textcolor_inverse" : [ 0.959262, 0.956712, 0.966038, 1.0 ],
					"fontname" : [ "Lato" ],
					"elementcolor" : [ 0.402827, 0.442342, 0.446734, 1.0 ],
					"bgfillcolor" : 					{
						"type" : "gradient",
						"color" : [ 0.290196, 0.309804, 0.301961, 1.0 ],
						"color1" : [ 0.580992, 0.600466, 0.396627, 1.0 ],
						"color2" : [ 0.326279, 0.337174, 0.223978, 1.0 ],
						"angle" : 277.842322,
						"proportion" : 0.484956,
						"autogradient" : 0,
						"pt1" : [ 0.485149, 0.026087 ],
						"pt2" : [ 0.559406, 0.565217 ]
					}

				}
,
				"parentstyle" : "",
				"multi" : 0
			}
, 			{
				"name" : "zielony",
				"default" : 				{
					"selectioncolor" : [ 0.528927, 1.0, 0.272898, 1.0 ],
					"fontface" : [ 0 ],
					"fontsize" : [ 14.0 ],
					"color" : [ 0.4, 1.0, 0.4, 1.0 ],
					"textcolor_inverse" : [ 0.528927, 1.0, 0.272898, 1.0 ],
					"patchlinecolor" : [ 0.439216, 0.74902, 0.254902, 0.9 ],
					"fontname" : [ "Lato Regular" ],
					"accentcolor" : [ 0.086281, 0.464155, 0.176596, 1.0 ],
					"textjustification" : [ 0 ],
					"elementcolor" : [ 0.03764, 0.288409, 0.132402, 1.0 ],
					"textcolor" : [ 0.0, 0.533333, 0.168627, 1.0 ],
					"bgcolor" : [ 0.178182, 0.194235, 0.179854, 1.0 ],
					"bgfillcolor" : 					{
						"type" : "color",
						"color" : [ 0.067387, 0.339963, 0.132708, 1.0 ],
						"color1" : [ 0.0, 0.501961, 0.25098, 1.0 ],
						"color2" : [ 0.019608, 0.254902, 0.035294, 1.0 ],
						"angle" : 268.517703,
						"proportion" : 0.525821,
						"autogradient" : 0,
						"pt1" : [ 0.490099, 0.478261 ],
						"pt2" : [ 0.475248, 1.052174 ]
					}

				}
,
				"parentstyle" : "",
				"multi" : 0
			}
 ],
		"toolbarexclusions" : [ "lessonbrowser", "browser_objects", "packagemanager", "omnibrowser", "object_menu", "message_menu", "comment" ]
	}

}
