{
	"patcher" : 	{
		"fileversion" : 1,
		"appversion" : 		{
			"major" : 7,
			"minor" : 2,
			"revision" : 3,
			"architecture" : "x64",
			"modernui" : 1
		}
,
		"rect" : [ 59.0, 81.0, 640.0, 480.0 ],
		"bglocked" : 0,
		"openinpresentation" : 0,
		"default_fontsize" : 12.0,
		"default_fontface" : 0,
		"default_fontname" : "Arial",
		"gridonopen" : 1,
		"gridsize" : [ 15.0, 15.0 ],
		"gridsnaponopen" : 1,
		"objectsnaponopen" : 1,
		"statusbarvisible" : 2,
		"toolbarvisible" : 1,
		"lefttoolbarpinned" : 0,
		"toptoolbarpinned" : 0,
		"righttoolbarpinned" : 0,
		"bottomtoolbarpinned" : 0,
		"toolbars_unpinned_last_save" : 0,
		"tallnewobj" : 0,
		"boxanimatetime" : 200,
		"enablehscroll" : 1,
		"enablevscroll" : 1,
		"devicewidth" : 0.0,
		"description" : "",
		"digest" : "",
		"tags" : "",
		"style" : "",
		"subpatcher_template" : "Default Max 7",
		"boxes" : [ 			{
				"box" : 				{
					"id" : "obj-18",
					"maxclass" : "newobj",
					"numinlets" : 1,
					"numoutlets" : 1,
					"outlettype" : [ "int" ],
					"patching_rect" : [ 93.0, 218.5, 27.0, 22.0 ],
					"style" : "",
					"text" : "t 1"
				}

			}
, 			{
				"box" : 				{
					"id" : "obj-17",
					"maxclass" : "newobj",
					"numinlets" : 2,
					"numoutlets" : 1,
					"outlettype" : [ "bang" ],
					"patching_rect" : [ 93.0, 185.5, 68.0, 22.0 ],
					"style" : "",
					"text" : "del #1"
				}

			}
, 			{
				"box" : 				{
					"id" : "obj-16",
					"maxclass" : "newobj",
					"numinlets" : 1,
					"numoutlets" : 3,
					"outlettype" : [ "", "int", "bang" ],
					"patching_rect" : [ 66.0, 147.5, 46.0, 22.0 ],
					"style" : "",
					"text" : "t l 0 b"
				}

			}
, 			{
				"box" : 				{
					"id" : "obj-15",
					"maxclass" : "newobj",
					"numinlets" : 2,
					"numoutlets" : 1,
					"outlettype" : [ "" ],
					"patching_rect" : [ 66.0, 112.5, 60.0, 22.0 ],
					"style" : "",
					"text" : "gate 1 1"
				}

			}
, 			{
				"box" : 				{
					"comment" : "",
					"id" : "obj-25",
					"maxclass" : "inlet",
					"numinlets" : 0,
					"numoutlets" : 1,
					"outlettype" : [ "" ],
					"patching_rect" : [ 107.0, 40.0, 30.0, 30.0 ],
					"style" : ""
				}

			}
, 			{
				"box" : 				{
					"comment" : "",
					"id" : "obj-26",
					"maxclass" : "inlet",
					"numinlets" : 0,
					"numoutlets" : 1,
					"outlettype" : [ "" ],
					"patching_rect" : [ 142.0, 40.0, 30.0, 30.0 ],
					"style" : ""
				}

			}
, 			{
				"box" : 				{
					"comment" : "",
					"id" : "obj-27",
					"maxclass" : "outlet",
					"numinlets" : 1,
					"numoutlets" : 0,
					"patching_rect" : [ 66.0, 313.0, 30.0, 30.0 ],
					"style" : ""
				}

			}
 ],
		"lines" : [ 			{
				"patchline" : 				{
					"destination" : [ "obj-16", 0 ],
					"disabled" : 0,
					"hidden" : 0,
					"source" : [ "obj-15", 0 ]
				}

			}
, 			{
				"patchline" : 				{
					"destination" : [ "obj-15", 0 ],
					"disabled" : 0,
					"hidden" : 0,
					"midpoints" : [ 89.0, 182.5, 52.25, 182.5, 52.25, 101.5, 75.5, 101.5 ],
					"source" : [ "obj-16", 1 ]
				}

			}
, 			{
				"patchline" : 				{
					"destination" : [ "obj-17", 0 ],
					"disabled" : 0,
					"hidden" : 0,
					"source" : [ "obj-16", 2 ]
				}

			}
, 			{
				"patchline" : 				{
					"destination" : [ "obj-27", 0 ],
					"disabled" : 0,
					"hidden" : 0,
					"source" : [ "obj-16", 0 ]
				}

			}
, 			{
				"patchline" : 				{
					"destination" : [ "obj-18", 0 ],
					"disabled" : 0,
					"hidden" : 0,
					"source" : [ "obj-17", 0 ]
				}

			}
, 			{
				"patchline" : 				{
					"destination" : [ "obj-15", 0 ],
					"disabled" : 0,
					"hidden" : 0,
					"midpoints" : [ 102.5, 250.5, 52.0, 250.5, 52.0, 101.5, 75.5, 101.5 ],
					"source" : [ "obj-18", 0 ]
				}

			}
, 			{
				"patchline" : 				{
					"destination" : [ "obj-15", 1 ],
					"disabled" : 0,
					"hidden" : 0,
					"source" : [ "obj-25", 0 ]
				}

			}
, 			{
				"patchline" : 				{
					"destination" : [ "obj-17", 1 ],
					"disabled" : 0,
					"hidden" : 0,
					"source" : [ "obj-26", 0 ]
				}

			}
 ],
		"dependency_cache" : [  ],
		"autosave" : 0
	}

}
